# xmcd
#
# Track frame offsets: 
#        150
#        15718
#        26228
#        37725
#        48917
#        60140
#        74313
#        88233
#        99070
#        108623
#        121395
#        136414
#
# Disc length: 2132 seconds
#
# Revision: 0
# Processed by: cddbd v1.5.2PL0 Copyright (c) Steve Scherf et al.
# Submitted via: ExactAudioCopy v0.99pb5
#
DISCID=9508520c
DTITLE=The Troggs  - Best Of Volume 2 (UK Mono)  
DYEAR=1900
DGENRE=
TTITLE0=I Can Only Give You Everything
TTITLE1=Meet Jacqueline
TTITLE2=Jingle Jangle
TTITLE3=I Want You To Come Into My Life
TTITLE4=Cousin Jane
TTITLE5=Louie Louie
TTITLE6=Love Is All Around
TTITLE7=From Home
TTITLE8=Jaguar And Thunderbird
TTITLE9=Hi Hi Hazel
TTITLE10=Evil
TTITLE11=Mona
EXTD=
EXTT0=
EXTT1=
EXTT2=
EXTT3=
EXTT4=
EXTT5=
EXTT6=
EXTT7=
EXTT8=
EXTT9=
EXTT10=
EXTT11=
PLAYORDER=
